<?xml version="1.0" encoding="iso-8859-1"?>
<!-- Generator: Adobe Illustrator 19.0.0, SVG Export Plug-In . SVG Version: 6.00 Build 0)  -->
<svg version="1.1" id="Layer_1" xmlns="http://www.w3.org/2000/svg" xmlns:xlink="http://www.w3.org/1999/xlink" x="0px" y="0px"
	 viewBox="0 0 512 512" style="enable-background:new 0 0 512 512;" xml:space="preserve">
<polygon style="fill:#BD1515;" points="303.221,303.221 464.784,141.669 417.557,78.702 248.135,263.876 "/>
<polygon style="fill:#F2484B;" points="248.135,263.876 425.427,86.573 370.331,47.216 208.779,208.779 "/>
<polygon style="fill:#185F8D;" points="141.669,464.784 303.232,303.232 256.006,256.006 78.713,417.568 "/>
<polygon style="fill:#6DA8D6;" points="86.584,425.439 256.006,256.006 208.779,208.779 47.228,370.342 "/>
<polygon style="fill:#BD1515;" points="441.166,23.608 512,0 488.392,70.834 449.038,62.962 "/>
<polygon style="fill:#F2EBD9;" points="464.785,141.668 488.392,70.834 441.166,23.608 370.332,47.215 "/>
<polygon style="fill:#185F8D;" points="23.608,441.166 0,512 70.834,488.392 62.962,449.038 "/>
<polygon style="fill:#F2EBD9;" points="141.668,464.785 70.834,488.392 23.608,441.166 47.215,370.332 "/>
<g>
</g>
<g>
</g>
<g>
</g>
<g>
</g>
<g>
</g>
<g>
</g>
<g>
</g>
<g>
</g>
<g>
</g>
<g>
</g>
<g>
</g>
<g>
</g>
<g>
</g>
<g>
</g>
<g>
</g>
</svg>
